Coordinates
version=1
nRows=10
nColumns=40
inDegrees=yes

Units are S.I. units (second, meters, Newtons, ...)
Angles are in degrees.

endheader
time	pelvis_tilt	pelvis_list	pelvis_rotation	pelvis_tx	pelvis_ty	pelvis_tz	hip_flexion_r	hip_adduction_r	hip_rotation_r	knee_angle_r	knee_angle_r_beta	ankle_angle_r	subtalar_angle_r	mtp_angle_r	hip_flexion_l	hip_adduction_l	hip_rotation_l	knee_angle_l	knee_angle_l_beta	ankle_angle_l	subtalar_angle_l	mtp_angle_l	lumbar_extension	lumbar_bending	lumbar_rotation	arm_flex_r	arm_add_r	arm_rot_r	elbow_flex_r	pro_sup_r	wrist_flex_r	wrist_dev_r	arm_flex_l	arm_add_l	arm_rot_l	elbow_flex_l	pro_sup_l	wrist_flex_l	wrist_dev_l
      0.01000000	     -2.31868086	     -1.96188115	     -0.38253534	      1.10560616	      0.92318114	      0.40821916	      9.70858074	     -9.04944867	     -5.30801011	     43.25674470	     43.25674470	      6.41993687	    -10.20077853	    -22.27861486	     15.29500628	      1.37098151	     -1.50458767	     28.07200647	     28.07200647	     18.15859874	    -17.45810895	      8.67349207	     -7.09861150	      5.29533853	      2.69586331	     21.87321990	    -16.20900679	     -3.36250409	     43.25679186	     45.04418513	      0.00000000	      0.00000000	     21.29196222	    -16.05703349	     13.47867443	     42.04333857	     45.49243726	      0.00000000	      0.00000000
      0.03257143	     -2.14284829	     -1.84993978	     -0.82185813	      1.10427371	      0.92262670	      0.40588682	     11.82584039	     -9.42490357	     -4.46525717	     47.15269710	     47.15269710	      4.67908926	    -11.86957546	    -21.80810118	     14.89985006	      1.59854356	     -1.91537221	     28.17043842	     28.17043842	     18.46699909	    -17.49430700	      8.48800288	     -7.19844828	      5.29866811	      2.40174546	     18.73896634	    -16.08781439	     -3.14753816	     41.61626466	     45.08309755	      0.00000000	      0.00000000	     22.31583848	    -16.12467416	     13.11457482	     42.79869112	     45.55090897	      0.00000000	      0.00000000
      0.05514286	     -1.94413085	     -1.95082201	     -1.25688273	      1.10294989	      0.92211262	      0.40373965	     13.77172490	     -9.34639499	     -3.50690628	     50.70728373	     50.70728373	      3.03228710	    -13.84976313	    -20.23829256	     14.53943905	      1.56773205	     -2.34481662	     28.41649592	     28.41649592	     18.83322424	    -17.48632443	      8.24412096	     -7.34294937	      5.54500560	      2.50409595	     15.39435697	    -16.18995843	     -2.92657235	     39.24305172	     45.15519116	      0.00000000	      0.00000000	     23.50296951	    -15.91212510	     12.42974571	     43.92422044	     45.65065479	      0.00000000	      0.00000000
      0.07771429	     -1.75833619	     -1.84606974	     -1.70807636	      1.10156965	      0.92157338	      0.40159606	     15.63083181	     -9.55090578	     -2.75261516	     53.94987792	     53.94987792	      1.69182326	    -15.07799111	    -18.70505211	     14.09037720	      1.77700860	     -2.80186344	     28.45917431	     28.45917431	     19.18768247	    -17.44447610	      8.06360842	     -7.50287976	      5.58550788	      2.28902331	     12.20057483	    -15.99699781	     -2.73459768	     37.21575119	     45.21062529	      0.00000000	      0.00000000	     24.59197124	    -16.00246009	     11.79264048	     44.83181109	     45.73775735	      0.00000000	      0.00000000
      0.10028571	     -1.48695862	     -1.97424935	     -2.14346013	      1.10020986	      0.92139441	      0.39984042	     17.24063199	     -9.34518778	     -2.07899931	     56.86510486	     56.86510486	      2.02276184	    -15.19604618	    -12.59174516	     13.59516178	      1.67639638	     -3.32288863	     28.61364199	     28.61364199	     19.47904611	    -17.30572569	      7.70332585	     -7.78154064	      5.80991128	      2.29794401	      9.42473043	    -15.74387318	     -2.66935681	     33.63816918	     45.36468122	      0.00000000	      0.00000000	     25.63612071	    -15.67599588	      9.86847239	     46.36610306	     45.96385092	      0.00000000	      0.00000000
      0.12285714	     -1.41851984	     -1.84714843	     -2.59821127	      1.09878710	      0.92104563	      0.39822737	     18.79437080	     -9.45197217	     -1.51200713	     58.93254678	     58.93254678	      1.48207280	    -15.83974485	    -10.89497044	     13.17363595	      1.89859856	     -3.74515563	     28.44215298	     28.44215298	     19.70363780	    -17.28624322	      7.60114289	     -7.78373813	      5.82054508	      2.03329766	      6.30397975	    -15.43349597	     -2.56705301	     31.86902138	     45.41613532	      0.00000000	      0.00000000	     26.61966245	    -15.82988548	      9.13520069	     47.42269267	     46.05635402	      0.00000000	      0.00000000
      0.14542857	     -1.24468049	     -1.93941572	     -3.00722801	      1.09742971	      0.92119654	      0.39710429	     20.07678944	     -9.24065306	     -1.13686272	     60.63485114	     60.63485114	      3.42981282	    -15.03125819	     -3.27133086	     12.61613777	      1.83262632	     -4.18522552	     28.25334063	     28.25334063	     19.80618718	    -17.18259771	      7.13347544	     -7.97226612	      6.02389570	      1.48600118	      3.80566202	    -14.86025644	     -2.89624692	     29.30992332	     45.58459728	      0.00000000	      0.00000000	     27.09352592	    -15.94778648	      6.49268527	     49.47894552	     46.33255284	      0.00000000	      0.00000000
      0.16800000	     -1.15424738	     -1.94263437	     -3.45287400	      1.09602531	      0.92153388	      0.39632414	     21.01027857	     -9.13761963	     -0.90972522	     61.08478175	     61.08478175	      3.43528264	    -15.52524644	     -2.70833119	     12.06247768	      1.86655629	     -4.61980531	     27.88142477	     27.88142477	     19.94022279	    -17.08307335	      7.11175409	     -8.05953676	      6.10415627	      1.44499974	      0.72648476	    -14.49280320	     -2.80686880	     27.95727700	     45.61814732	      0.00000000	      0.00000000	     28.18408696	    -16.09762556	      5.97273980	     50.68735672	     46.40257699	      0.00000000	      0.00000000
      0.19057143	     -1.09217342	     -1.99873703	     -3.92978318	      1.09459998	      0.92213547	      0.39603970	     21.75290817	     -8.92408729	     -0.75775298	     60.81248640	     60.81248640	      3.97242615	    -15.76884480	     -1.94127944	     11.45916308	      1.81320723	     -5.08035817	     27.35887047	     27.35887047	     20.01721273	    -16.93054981	      7.02674583	     -8.16318684	      6.24315867	      1.54083184	     -2.29625521	    -14.05645475	     -2.78315357	     26.83427453	     45.64914923	      0.00000000	      0.00000000	     29.18227464	    -16.23437840	      5.24606930	     52.30189784	     46.49376921	      0.00000000	      0.00000000
      0.21314286	     -1.07820034	     -2.08033037	     -4.45343042	      1.09307478	      0.92296807	      0.39624535	     22.34857426	     -8.64499869	     -0.67633925	     59.81531458	     59.81531458	      4.83484094	    -15.78664857	     -1.33768365	     10.83983615	      1.70517901	     -5.58200088	     26.69536239	     26.69536239	     19.98555806	    -16.76957319	      6.90711344	     -8.25649636	      6.37524331	      1.54884476	     -5.10579116	    -13.56737673	     -2.83442801	     26.09283563	     45.67185248	      0.00000000	      0.00000000	     30.03846805	    -16.51315204	      4.38286533	     54.10364274	     46.59621015	      0.00000000	      0.00000000
